<?xml version="1.0" standalone="no"?>
<!DOCTYPE svg PUBLIC "-//W3C//DTD SVG 20010904//EN"
 "http://www.w3.org/TR/2001/REC-SVG-20010904/DTD/svg10.dtd">
<svg version="1.0" xmlns="http://www.w3.org/2000/svg"
 width="120.000000pt" height="120.000000pt" viewBox="0 0 120.000000 120.000000"
 preserveAspectRatio="xMidYMid meet">
<metadata>
Created by potrace 1.14, written by Peter Selinger 2001-2017
</metadata>
<g transform="translate(0.000000,120.000000) scale(0.100000,-0.100000)"
fill="#000000" stroke="none">
<path d="M411 1128 c-77 -10 -149 -39 -214 -86 -55 -39 -74 -67 -52 -75 12 -5
58 22 75 44 3 3 25 17 50 31 40 22 69 33 120 45 31 7 137 6 188 -2 43 -6 52
-5 52 8 0 16 -17 25 -64 32 -64 10 -93 11 -155 3z"/>
<path d="M1010 1076 l0 -56 -114 0 c-79 0 -130 -5 -165 -17 -104 -33 -185
-138 -197 -255 -5 -52 -4 -57 17 -63 38 -12 255 -8 296 6 81 26 135 74 179
159 14 28 18 59 19 155 0 106 -2 120 -17 123 -15 3 -18 -5 -18 -52z"/>
<path d="M344 994 c-73 -25 -77 -27 -136 -76 -79 -66 -134 -170 -144 -274 -4
-40 -2 -53 10 -57 20 -8 22 -3 30 65 20 162 164 306 326 324 55 6 83 25 60 39
-17 10 -84 1 -146 -21z"/>
<path d="M1094 848 c-4 -7 -9 -24 -10 -38 -12 -109 -100 -193 -215 -205 -9 -1
-22 -5 -28 -9 -19 -12 7 -37 33 -32 88 16 133 39 184 96 39 42 50 68 66 157 5
26 -18 51 -30 31z"/>
<path d="M183 728 c-9 -12 -10 -283 -1 -318 41 -159 141 -271 285 -318 52 -17
90 -21 250 -22 228 -1 227 -1 218 101 -14 154 -105 288 -238 349 -83 39 -106
42 -292 45 -88 2 -163 3 -167 4 -4 0 -6 34 -5 74 0 40 -2 78 -7 85 -9 16 -31
15 -43 0z"/>
</g>
</svg>
